0
SECTION
2
HEADER
9
$INSUNITS
70
4
9
$ACADVER
1
AC1014
9
$HANDSEED
5
FFFF
0
ENDSEC
0
SECTION
2
TABLES
0
TABLE
2
VPORT
5
8
100
AcDbSymbolTable
0
ENDTAB
0
TABLE
2
LTYPE
5
5
100
AcDbSymbolTable
0
LTYPE
5
14
100
AcDbSymbolTableRecord
100
AcDbLinetypeTableRecord
2
BYBLOCK
70
0
0
LTYPE
5
15
100
AcDbSymbolTableRecord
100
AcDbLinetypeTableRecord
2
BYLAYER
70
0
0
LTYPE
5
16
100
AcDbSymbolTableRecord
100
AcDbLinetypeTableRecord
2
DASHED
70
0
3
Dashed __ __ __ __ __ __ __ __ __ __ __ __ __ _
72
65
73
2
40
0.75
49
0.5
74
0
49
-0.25
74
0
0
ENDTAB
0
TABLE
2
LAYER
5
2
100
AcDbSymbolTable
70
2
0
LAYER
5
50
100
AcDbSymbolTableRecord
100
AcDbLayerTableRecord
2
0
70
0
62
7
6
CONTINUOUS
0
ENDTAB
0
TABLE
2
STYLE
5
3
100
AcDbSymbolTable
70
1
0
STYLE
5
11
100
AcDbSymbolTableRecord
100
AcDbTextStyleTableRecord
2
STANDARD
70
0
0
ENDTAB
0
TABLE
2
VIEW
5
6
100
AcDbSymbolTable
70
0
0
ENDTAB
0
TABLE
2
UCS
5
7
100
AcDbSymbolTable
70
0
0
ENDTAB
0
TABLE
2
APPID
5
9
100
AcDbSymbolTable
70
2
0
APPID
5
12
100
AcDbSymbolTableRecord
100
AcDbRegAppTableRecord
2
ACAD
70
0
0
ENDTAB
0
TABLE
2
DIMSTYLE
5
A
100
AcDbSymbolTable
70
1
0
ENDTAB
0
TABLE
2
BLOCK_RECORD
5
1
100
AcDbSymbolTable
70
1
0
BLOCK_RECORD
5
1F
100
AcDbSymbolTableRecord
100
AcDbBlockTableRecord
2
*MODEL_SPACE
0
BLOCK_RECORD
5
1B
100
AcDbSymbolTableRecord
100
AcDbBlockTableRecord
2
*PAPER_SPACE
0
ENDTAB
0
ENDSEC
0
SECTION
2
BLOCKS
0
BLOCK
5
20
100
AcDbEntity
100
AcDbBlockBegin
2
*MODEL_SPACE
0
ENDBLK
5
21
100
AcDbEntity
100
AcDbBlockEnd
0
BLOCK
5
1C
100
AcDbEntity
100
AcDbBlockBegin
2
*PAPER_SPACE
0
ENDBLK
5
1D
100
AcDbEntity
100
AcDbBlockEnd
0
ENDSEC
0
SECTION
2
ENTITIES
0
POINT
5
100
100
AcDbEntity
8
0
100
AcDbPoint
10
0
20
0
30
0
0
LWPOLYLINE
5
101
100
AcDbEntity
8
0
100
AcDbPolyline
90
8
70
1
43
0.0
10
0
20
5.7205905015840948
10
0
20
0
10
0
20
-5.7205905015840948
10
-5.7305905006254001
20
-5.7205905015840948
10
-5.7305905006254001
20
0
10
0
20
0
10
5.7305905006254019
20
0
10
5.7305905006254019
20
5.7205905015840948
0
LWPOLYLINE
5
102
100
AcDbEntity
8
0
100
AcDbPolyline
90
4
70
1
43
0.0
10
5.7305905006254019
20
-5.7205905015840948
10
5.7305905006254019
20
5.7205905015840948
10
-5.7305905006254019
20
5.7205905015840948
10
-5.7305905006254001
20
-5.7205905015840948
0
LWPOLYLINE
5
103
100
AcDbEntity
8
0
100
AcDbPolyline
90
4
70
1
43
0.0
10
-3.5000000000000009
20
2.5
10
3.5000000000000009
20
2.5
10
3.5000000000000009
20
-2.5
10
-3.5000000000000009
20
-2.5
0
LWPOLYLINE
5
104
100
AcDbEntity
8
0
100
AcDbPolyline
90
12
70
1
43
0.0
10
0.55000000000000138
20
2.1000000000000001
10
0.55000000000000004
20
0.55000000000000027
10
2.1000000000000001
20
0.55000000000000027
10
2.1000000000000005
20
-0.55000000000000004
10
0.55000000000000038
20
-0.55000000000000027
10
0.5500000000000006
20
-2.1000000000000001
10
-0.54999999999999982
20
-2.1000000000000001
10
-0.55000000000000027
20
-0.55000000000000027
10
-2.1000000000000001
20
-0.55000000000000027
10
-2.1000000000000001
20
0.55000000000000027
10
-0.55000000000000027
20
0.55000000000000027
10
-0.5500000000000006
20
2.1000000000000001
0
LWPOLYLINE
5
105
100
AcDbEntity
8
0
100
AcDbPolyline
90
10
70
1
43
0.0
10
13.769381388451368
20
-5.7621550699557655
10
25.230562389702111
20
-5.7621550699557664
10
13.769381388451368
20
-5.7621550699557655
10
13.769381388451368
20
-0.041564568371697537
10
13.769381388451368
20
-5.7621550699557655
10
13.769381388451354
20
5.6790259332123716
10
25.230562389702111
20
5.6790259332123707
10
19.499971889076733
20
5.6790259332123716
10
25.230562389702111
20
5.6790259332123707
10
13.769381388451354
20
5.6790259332123716
0
LWPOLYLINE
5
106
100
AcDbEntity
8
0
100
AcDbPolyline
90
4
70
1
43
0.0
10
25.230562389702111
20
-5.7621550699557664
10
25.230562389702111
20
5.6790259332123707
10
25.230562389702111
20
-0.041564568371698085
10
25.230562389702111
20
5.6790259332123707
0
LWPOLYLINE
5
107
100
AcDbEntity
8
0
100
AcDbPolyline
90
10
70
1
43
0.0
10
19.499971889076733
20
5.6790259332123716
10
19.499971889076733
20
-0.041564568371698085
10
25.230562389702111
20
-0.041564568371697731
10
19.499971889076733
20
-0.041564568371698085
10
13.769381388451368
20
-0.041564568371697537
10
19.499971889076733
20
-0.041564568371698085
10
19.499971889076733
20
-5.7621550699557655
10
13.769381388451368
20
-5.7621550699557655
10
19.499971889076733
20
-5.7621550699557655
10
19.499971889076733
20
-0.041564568371698085
0
LWPOLYLINE
5
108
100
AcDbEntity
8
0
100
AcDbPolyline
90
4
70
1
43
0.0
10
22.999971889076718
20
-2.5415645683716863
10
15.999971889076754
20
-2.5415645683716863
10
15.999971889076754
20
2.458435431628291
10
22.999971889076718
20
2.458435431628291
0
LWPOLYLINE
5
109
100
AcDbEntity
8
0
100
AcDbPolyline
90
12
70
1
43
0.0
10
17.399971889076742
20
0.50843543162830007
10
18.949971889076732
20
0.50843543162829996
10
18.949971889076732
20
2.0584354316282925
10
20.049971889076733
20
2.0584354316282925
10
20.049971889076733
20
0.50843543162829996
10
21.599971889076734
20
0.50843543162829996
10
21.599971889076734
20
-0.59156456837169513
10
20.04997188907673
20
-0.59156456837169524
10
20.049971889076733
20
-2.1415645683716882
10
18.949971889076746
20
-2.1415645683716882
10
18.949971889076732
20
-0.59156456837169524
10
17.399971889076742
20
-0.59156456837169524
0
LWPOLYLINE
5
110
100
AcDbEntity
8
0
100
AcDbPolyline
90
12
70
1
43
0.0
10
17.399971889076742
20
0.50843543162830007
10
18.949971889076732
20
0.50843543162829996
10
18.949971889076732
20
2.0584354316282925
10
20.049971889076733
20
2.0584354316282925
10
20.049971889076733
20
0.50843543162829996
10
21.599971889076734
20
0.50843543162829996
10
21.599971889076734
20
-0.59156456837169513
10
20.04997188907673
20
-0.59156456837169524
10
20.049971889076733
20
-2.1415645683716882
10
18.949971889076746
20
-2.1415645683716882
10
18.949971889076732
20
-0.59156456837169524
10
17.399971889076742
20
-0.59156456837169524
0
LWPOLYLINE
5
111
100
AcDbEntity
8
0
100
AcDbPolyline
90
4
70
1
43
0.0
10
15.999971889076754
20
-2.5415645683716863
10
15.999971889076754
20
2.458435431628291
10
22.999971889076718
20
2.458435431628291
10
22.999971889076718
20
-2.5415645683716863
0
LWPOLYLINE
5
112
100
AcDbEntity
8
0
100
AcDbPolyline
90
6
70
1
43
0.0
10
5.7305905006254019
20
19.5
10
5.7305905006254019
20
25.220590501584095
10
-5.7305905006254019
20
25.220590501584095
10
-5.7305905006254001
20
13.779409498415909
10
0
20
13.779409498415909
10
0
20
19.5
0
LWPOLYLINE
5
113
100
AcDbEntity
8
0
100
AcDbPolyline
90
6
70
1
43
0.0
10
0
20
25.220590501584095
10
0
20
19.5
10
-5.7305905006254001
20
19.5
10
-5.7305905006254001
20
13.779409498415909
10
5.7305905006254019
20
13.779409498415909
10
5.7305905006254019
20
25.220590501584095
0
LWPOLYLINE
5
114
100
AcDbEntity
8
0
100
AcDbPolyline
90
4
70
1
43
0.0
10
3.5000000000000009
20
22
10
3.5000000000000009
20
17
10
-3.5000000000000009
20
17
10
-3.5000000000000009
20
22
0
LWPOLYLINE
5
115
100
AcDbEntity
8
0
100
AcDbPolyline
90
12
70
1
43
0.0
10
-0.55000000000000027
20
18.950000000000006
10
-2.1000000000000001
20
18.950000000000006
10
-2.1000000000000001
20
20.050000000000004
10
-0.55000000000000027
20
20.050000000000004
10
-0.5500000000000006
20
21.600000000000001
10
0.55000000000000149
20
21.600000000000001
10
0.55000000000000004
20
20.050000000000004
10
2.1000000000000001
20
20.050000000000004
10
2.1000000000000005
20
18.950000000000006
10
0.55000000000000049
20
18.950000000000006
10
0.5500000000000006
20
17.400000000000002
10
-0.54999999999999982
20
17.400000000000002
0
LWPOLYLINE
5
116
100
AcDbEntity
8
0
100
AcDbPolyline
90
8
70
1
43
0.0
10
-19.5
20
5.7205905015840948
10
-19.5
20
0
10
-19.5
20
-5.7205905015840948
10
-25.230590500625407
20
-5.7205905015840948
10
-25.230590500625407
20
0
10
-19.5
20
0
10
-13.7694094993746
20
0
10
-13.7694094993746
20
5.7205905015840948
0
LWPOLYLINE
5
117
100
AcDbEntity
8
0
100
AcDbPolyline
90
4
70
1
43
0.0
10
-25.230590500625407
20
-5.7205905015840948
10
-25.230590500625407
20
5.7205905015840948
10
-13.7694094993746
20
5.7205905015840948
10
-13.7694094993746
20
-5.7205905015840948
0
LWPOLYLINE
5
118
100
AcDbEntity
8
0
100
AcDbPolyline
90
4
70
1
43
0.0
10
-16
20
2.5
10
-16
20
-2.5
10
-23.000000000000004
20
-2.5
10
-23.000000000000004
20
2.5
0
LWPOLYLINE
5
119
100
AcDbEntity
8
0
100
AcDbPolyline
90
12
70
1
43
0.0
10
-20.050000000000004
20
-2.1000000000000001
10
-20.050000000000004
20
-0.55000000000000027
10
-21.600000000000001
20
-0.55000000000000027
10
-21.600000000000001
20
0.55000000000000027
10
-20.050000000000004
20
0.55000000000000027
10
-20.050000000000004
20
2.1000000000000001
10
-18.949999999999999
20
2.1000000000000001
10
-18.950000000000006
20
0.55000000000000027
10
-17.400000000000002
20
0.55000000000000027
10
-17.400000000000002
20
-0.55000000000000004
10
-18.950000000000006
20
-0.55000000000000027
10
-18.949999999999999
20
-2.1000000000000001
0
LWPOLYLINE
5
120
100
AcDbEntity
8
0
100
AcDbPolyline
90
6
70
1
43
0.0
10
5.7305905006254019
20
-25.220590501584095
10
5.7305905006254019
20
-13.779409498415905
10
5.7305905006254019
20
-19.5
10
0
20
-19.5
10
0
20
-25.220590501584095
10
-5.7305905006254001
20
-25.220590501584095
0
LWPOLYLINE
5
121
100
AcDbEntity
8
0
100
AcDbPolyline
90
6
70
1
43
0.0
10
5.7305905006254019
20
-13.779409498415905
10
-5.7305905006254019
20
-13.779409498415909
10
-5.7305905006254001
20
-25.220590501584095
10
-5.7305905006254001
20
-19.5
10
0
20
-19.5
10
0
20
-13.779409498415909
0
LWPOLYLINE
5
122
100
AcDbEntity
8
0
100
AcDbPolyline
90
4
70
1
43
0.0
10
-3.5000000000000009
20
-22
10
-3.5000000000000009
20
-17
10
3.5000000000000009
20
-17
10
3.5000000000000009
20
-22
0
LWPOLYLINE
5
123
100
AcDbEntity
8
0
100
AcDbPolyline
90
12
70
1
43
0.0
10
2.1000000000000001
20
-18.950000000000006
10
2.1000000000000005
20
-20.050000000000004
10
0.55000000000000049
20
-20.050000000000004
10
0.5500000000000006
20
-21.600000000000001
10
-0.54999999999999982
20
-21.600000000000001
10
-0.55000000000000027
20
-20.050000000000004
10
-2.1000000000000001
20
-20.050000000000004
10
-2.1000000000000001
20
-18.950000000000006
10
-0.55000000000000027
20
-18.950000000000006
10
-0.5500000000000006
20
-17.400000000000002
10
0.55000000000000149
20
-17.400000000000002
10
0.55000000000000004
20
-18.950000000000006
0
LWPOLYLINE
5
124
100
AcDbEntity
8
0
100
AcDbPolyline
90
4
70
1
43
0.0
10
-28.524999999999999
20
-28.524999999999999
10
28.524999999999999
20
-28.524999999999999
10
28.524999999999999
20
28.524999999999999
10
-28.524999999999999
20
28.524999999999999
0
LWPOLYLINE
5
125
100
AcDbEntity
8
0
100
AcDbPolyline
90
4
70
1
43
0.0
10
-27.425000000000001
20
-27.425000000000001
10
27.425000000000001
20
-27.425000000000001
10
27.425000000000001
20
27.425000000000001
10
-27.425000000000001
20
27.425000000000001
0
LWPOLYLINE
5
126
100
AcDbEntity
8
0
100
AcDbPolyline
90
4
70
1
43
0.0
10
-16
20
-17
10
-16
20
-22
10
-23.000000000000004
20
-22
10
-23.000000000000004
20
-17
0
LWPOLYLINE
5
127
100
AcDbEntity
8
0
100
AcDbPolyline
90
12
70
1
43
0.0
10
-18.949999999999999
20
-17.400000000000002
10
-18.950000000000003
20
-18.950000000000006
10
-17.400000000000002
20
-18.950000000000006
10
-17.400000000000002
20
-20.050000000000004
10
-18.949999999999999
20
-20.050000000000004
10
-18.949999999999999
20
-21.600000000000001
10
-20.050000000000004
20
-21.600000000000001
10
-20.050000000000004
20
-20.050000000000004
10
-21.600000000000001
20
-20.050000000000004
10
-21.600000000000001
20
-18.950000000000006
10
-20.050000000000004
20
-18.950000000000006
10
-20.050000000000004
20
-17.400000000000002
0
LWPOLYLINE
5
128
100
AcDbEntity
8
0
100
AcDbPolyline
90
12
70
1
43
0.0
10
-13.7694094993746
20
-25.220590501584095
10
-13.7694094993746
20
-13.779409498415905
10
-25.230590500625404
20
-13.779409498415909
10
-25.230590500625404
20
-25.220590501584095
10
-19.5
20
-25.220590501584095
10
-19.5
20
-19.5
10
-19.5
20
-13.779409498415909
10
-13.7694094993746
20
-13.779409498415905
10
-13.7694094993746
20
-19.5
10
-19.5
20
-19.5
10
-25.230590500625404
20
-19.5
10
-25.230590500625404
20
-25.220590501584095
0
LWPOLYLINE
5
129
100
AcDbEntity
8
0
100
AcDbPolyline
90
4
70
1
43
0.0
10
23.000000000000004
20
-17
10
23.000000000000004
20
-22
10
16
20
-22
10
16
20
-17
0
LWPOLYLINE
5
130
100
AcDbEntity
8
0
100
AcDbPolyline
90
12
70
1
43
0.0
10
20.050000000000004
20
-17.400000000000002
10
20.050000000000004
20
-18.950000000000006
10
21.600000000000001
20
-18.950000000000006
10
21.600000000000001
20
-20.050000000000004
10
20.050000000000004
20
-20.050000000000004
10
20.050000000000004
20
-21.600000000000001
10
18.950000000000003
20
-21.600000000000001
10
18.950000000000003
20
-20.050000000000004
10
17.400000000000002
20
-20.050000000000004
10
17.400000000000002
20
-18.950000000000006
10
18.950000000000003
20
-18.950000000000006
10
18.949999999999999
20
-17.400000000000002
0
LWPOLYLINE
5
131
100
AcDbEntity
8
0
100
AcDbPolyline
90
12
70
1
43
0.0
10
25.230590500625404
20
-25.220590501584095
10
25.230590500625404
20
-13.779409498415905
10
13.7694094993746
20
-13.779409498415909
10
13.7694094993746
20
-25.220590501584095
10
19.5
20
-25.220590501584095
10
19.5
20
-19.5
10
19.5
20
-13.779409498415909
10
25.230590500625404
20
-13.779409498415905
10
25.230590500625404
20
-19.5
10
19.5
20
-19.5
10
13.7694094993746
20
-19.5
10
13.7694094993746
20
-25.220590501584095
0
LWPOLYLINE
5
132
100
AcDbEntity
8
0
100
AcDbPolyline
90
12
70
1
43
0.0
10
19.5
20
25.220590501584095
10
19.5
20
19.5
10
19.5
20
13.779409498415909
10
13.7694094993746
20
13.779409498415909
10
13.7694094993746
20
19.5
10
19.5
20
19.5
10
25.230590500625404
20
19.5
10
25.230590500625404
20
25.220590501584095
10
13.7694094993746
20
25.220590501584095
10
13.7694094993746
20
13.779409498415909
10
25.230590500625404
20
13.779409498415909
10
25.230590500625404
20
25.220590501584095
0
LWPOLYLINE
5
133
100
AcDbEntity
8
0
100
AcDbPolyline
90
12
70
1
43
0.0
10
21.600000000000001
20
20.050000000000004
10
21.600000000000001
20
18.950000000000006
10
20.050000000000004
20
18.950000000000006
10
20.050000000000004
20
17.400000000000002
10
18.950000000000003
20
17.400000000000002
10
18.950000000000003
20
18.950000000000006
10
17.400000000000002
20
18.950000000000006
10
17.400000000000002
20
20.050000000000004
10
18.950000000000003
20
20.050000000000004
10
18.949999999999999
20
21.600000000000001
10
20.050000000000004
20
21.600000000000001
10
20.050000000000004
20
20.050000000000004
0
LWPOLYLINE
5
134
100
AcDbEntity
8
0
100
AcDbPolyline
90
4
70
1
43
0.0
10
16
20
17
10
16
20
22
10
23.000000000000004
20
22
10
23.000000000000004
20
17
0
LWPOLYLINE
5
135
100
AcDbEntity
8
0
100
AcDbPolyline
90
16
70
1
43
0.0
10
-19.5
20
25.220590501584095
10
-19.5
20
19.5
10
-19.5
20
13.779409498415909
10
-25.230590500625404
20
13.779409498415909
10
-25.230590500625404
20
19.5
10
-19.5
20
19.5
10
-13.7694094993746
20
19.5
10
-13.7694094993746
20
25.220590501584095
10
-25.230590500625404
20
25.220590501584095
10
25.230590500625404
20
25.220590501584095
10
25.230590500625404
20
-25.220590501584095
10
-25.230590500625404
20
-25.220590501584095
10
-25.230590500625404
20
25.220590501584095
10
-25.230590500625404
20
13.779409498415909
10
-13.7694094993746
20
13.779409498415909
10
-13.7694094993746
20
25.220590501584095
0
LWPOLYLINE
5
136
100
AcDbEntity
8
0
100
AcDbPolyline
90
12
70
1
43
0.0
10
-17.400000000000002
20
20.050000000000004
10
-17.400000000000002
20
18.950000000000006
10
-18.949999999999999
20
18.950000000000006
10
-18.949999999999999
20
17.400000000000002
10
-20.050000000000004
20
17.400000000000002
10
-20.050000000000004
20
18.950000000000006
10
-21.600000000000001
20
18.950000000000006
10
-21.600000000000001
20
20.050000000000004
10
-20.050000000000004
20
20.050000000000004
10
-20.050000000000004
20
21.600000000000001
10
-18.949999999999999
20
21.600000000000001
10
-18.950000000000003
20
20.050000000000004
0
LWPOLYLINE
5
137
100
AcDbEntity
8
0
100
AcDbPolyline
90
4
70
1
43
0.0
10
-23.000000000000004
20
17
10
-23.000000000000004
20
22
10
-16
20
22
10
-16
20
17
0
CIRCLE
5
138
100
AcDbEntity
8
0
100
AcDbCircle
10
-19.5
20
19.5
30
0
40
2.5
210
0
220
0
230
1
0
CIRCLE
5
139
100
AcDbEntity
8
0
100
AcDbCircle
10
0
20
19.5
30
0
40
2.4999998629093287
210
0
220
0
230
1
0
CIRCLE
5
140
100
AcDbEntity
8
0
100
AcDbCircle
10
19.5
20
19.5
30
0
40
2.4999999999999982
210
0
220
0
230
1
0
CIRCLE
5
141
100
AcDbEntity
8
0
100
AcDbCircle
10
19.499971889076733
20
-0.041564568371698085
30
0
40
2.5000000000000009
210
0
220
0
230
1
0
CIRCLE
5
142
100
AcDbEntity
8
0
100
AcDbCircle
10
0
20
0
30
0
40
2.5
210
0
220
0
230
1
0
CIRCLE
5
143
100
AcDbEntity
8
0
100
AcDbCircle
10
-19.5
20
0
30
0
40
2.5
210
0
220
0
230
1
0
CIRCLE
5
144
100
AcDbEntity
8
0
100
AcDbCircle
10
-19.5
20
-19.5
30
0
40
2.5
210
0
220
0
230
1
0
CIRCLE
5
145
100
AcDbEntity
8
0
100
AcDbCircle
10
0
20
-19.5
30
0
40
2.5000000000000009
210
0
220
0
230
1
0
CIRCLE
5
146
100
AcDbEntity
8
0
100
AcDbCircle
10
19.5
20
-19.5
30
0
40
2.5000000000000009
210
0
220
0
230
1
0
ENDSEC
0
SECTION
2
OBJECTS
0
DICTIONARY
5
C
100
AcDbDictionary
3
ACAD_GROUP
350
D
3
ACAD_MLINESTYLE
350
17
0
DICTIONARY
5
D
100
AcDbDictionary
0
DICTIONARY
5
1A
330
C
100
AcDbDictionary
0
DICTIONARY
5
17
100
AcDbDictionary
0
ENDSEC
0
EOF
